<?xml version="1.0" encoding="utf-8"?>
<!-- Generator: Adobe Illustrator 24.3.0, SVG Export Plug-In . SVG Version: 6.00 Build 0)  -->
<svg width="50px" version="1.1" id="Layer_1" xmlns="http://www.w3.org/2000/svg" xmlns:xlink="http://www.w3.org/1999/xlink" x="0px" y="0px"
	 viewBox="0 0 48 48" style="enable-background:new 0 0 48 48;" xml:space="preserve">
<g>
	<path d="M41.2,14.6l-6.8-6.8c-0.1-0.1-0.2-0.2-0.4-0.2h-2.8c-0.3,0-0.5,0.2-0.5,0.5c0,0.3,0.2,0.5,0.5,0.5h2.2v3.8c0,1.6,1.3,3,3,3
		h3.8v17.9c0,0.7-0.4,1.4-1.1,1.7c-0.1-3.3-2.9-6-6.3-6c-3.4,0-6.2,2.8-6.3,6.2h-0.9v-7h7.1c0.3,0,0.5-0.2,0.5-0.5
		c0-0.3-0.2-0.5-0.5-0.5h-7.1v-1.2h7.1c0.3,0,0.5-0.2,0.5-0.5c0-0.3-0.2-0.5-0.5-0.5h-7.1v-1.2h7.1c0.3,0,0.5-0.2,0.5-0.5
		c0-0.3-0.2-0.5-0.5-0.5h-7.3c-0.1-0.4-0.3-0.8-0.5-1.2h7.7c0.3,0,0.5-0.2,0.5-0.5s-0.2-0.5-0.5-0.5h-8.6c-0.7-0.7-1.7-1.1-2.8-1.1
		h-4.4v-8.9c0-1.1,0.9-1.9,1.9-1.9h10.1c0.3,0,0.5-0.2,0.5-0.5c0-0.3-0.2-0.5-0.5-0.5H19.1c-1.6,0-3,1.3-3,3v8.9h-5.9
		c-2.3,0-4.2,1.9-4.2,4.2v14.8c0,2.3,1.9,4.2,4.2,4.2h11.3c2.3,0,4.2-1.9,4.2-4.2v-2.1h1c0.5,3,3.1,5.3,6.2,5.3
		c3.2,0,5.8-2.4,6.2-5.4c1.2-0.4,2.1-1.5,2.1-2.9V14.9C41.3,14.8,41.3,14.7,41.2,14.6L41.2,14.6z M24.7,38.5c0,1.8-1.4,3.2-3.2,3.2
		H10.3c-1.8,0-3.2-1.4-3.2-3.2V23.7c0-1.8,1.4-3.2,3.2-3.2h11.3c1.8,0,3.2,1.4,3.2,3.2L24.7,38.5L24.7,38.5z M33,40.6
		c-2.9,0-5.2-2.3-5.2-5.2c0-2.9,2.3-5.2,5.2-5.2c2.9,0,5.2,2.3,5.2,5.2C38.2,38.3,35.9,40.6,33,40.6z M34.5,12.5V9.4l5,5h-3.1
		C35.4,14.4,34.5,13.6,34.5,12.5z"/>
	<path d="M21.6,22.3H10.3c-0.8,0-1.5,0.7-1.5,1.5v2.5c0,0.7,0.6,1.3,1.3,1.3h1.3c0.3,0,0.5-0.2,0.5-0.5c0-0.3-0.2-0.5-0.5-0.5h-1.3
		c-0.2,0-0.3-0.1-0.3-0.3v-2.5c0-0.2,0.2-0.4,0.4-0.4h11.3c0.2,0,0.4,0.2,0.4,0.4v2.5c0,0.2-0.1,0.3-0.3,0.3h-8.2
		c-0.3,0-0.5,0.2-0.5,0.5c0,0.3,0.2,0.5,0.5,0.5h8.2c0.7,0,1.3-0.6,1.3-1.3v-2.5C23,22.9,22.4,22.3,21.6,22.3L21.6,22.3z"/>
	<path d="M21.7,29H10.2c-0.7,0-1.3,0.6-1.3,1.3v8.1c0,0.8,0.7,1.5,1.5,1.5h11.3c0.8,0,1.5-0.7,1.5-1.5v-8.1C23,29.6,22.4,29,21.7,29
		L21.7,29z M22,30.3v2h-2.2v-2.3h1.9C21.9,30.1,22,30.2,22,30.3z M13.1,33.3h2.3v2.3h-2.3L13.1,33.3z M12.1,35.6H9.9v-2.3h2.2V35.6z
		 M15.4,32.3h-2.3v-2.3h2.3V32.3z M16.4,30.1h2.3v2.3h-2.3L16.4,30.1z M15.4,36.6v2.3h-2.3v-2.3H15.4z M16.4,36.6h2.3v2.3h-2.3
		L16.4,36.6z M16.4,35.6v-2.3h2.3v2.3H16.4z M19.8,33.3H22v2.3h-2.2V33.3z M10.2,30.1h1.9v2.3H9.9v-2C9.9,30.2,10,30.1,10.2,30.1z
		 M9.9,38.5v-1.8h2.2v2.3h-1.8C10.1,38.9,9.9,38.7,9.9,38.5z M21.6,38.9h-1.8v-2.3H22v1.8C22,38.7,21.8,38.9,21.6,38.9z"/>
	<path d="M33.7,34.9c-0.4-0.2-0.9-0.4-1.2-0.6c-0.1-0.1-0.1-0.2-0.1-0.4c0-0.1,0.1-0.3,0.4-0.4c0.5-0.2,0.9,0.1,0.9,0.1
		c0.2,0.2,0.5,0.2,0.7-0.1c0.2-0.2,0.2-0.5-0.1-0.7c-0.1-0.1-0.4-0.3-0.8-0.4v-0.2c0-0.3-0.2-0.5-0.5-0.5c-0.3,0-0.5,0.2-0.5,0.5
		v0.2c0,0,0,0,0,0c-0.6,0.2-1,0.6-1.1,1.2c-0.1,0.5,0.1,1.1,0.5,1.4c0.3,0.2,0.8,0.5,1.5,0.7c0.5,0.2,0.5,0.6,0.5,0.7
		c-0.1,0.3-0.3,0.7-0.8,0.7c-0.5,0-0.6,0-1-0.3c-0.2-0.2-0.6-0.1-0.7,0.1c-0.2,0.2-0.1,0.6,0.1,0.7c0.4,0.3,0.7,0.4,1,0.4v0.2
		c0,0.3,0.2,0.5,0.5,0.5c0.3,0,0.5-0.2,0.5-0.5v-0.3c0.7-0.2,1.2-0.9,1.3-1.5C34.9,35.9,34.5,35.2,33.7,34.9L33.7,34.9z"/>
	<path d="M20,14.4c0,0.3,0.2,0.5,0.5,0.5h10.7c0.3,0,0.5-0.2,0.5-0.5s-0.2-0.5-0.5-0.5H20.6C20.3,13.9,20,14.1,20,14.4L20,14.4z"/>
	<path d="M35.3,21.6h1.6c0.3,0,0.5-0.2,0.5-0.5c0-0.3-0.2-0.5-0.5-0.5h-1.6c-0.3,0-0.5,0.2-0.5,0.5C34.8,21.4,35,21.6,35.3,21.6z"/>
	<path d="M35.3,23.8h1.6c0.3,0,0.5-0.2,0.5-0.5c0-0.3-0.2-0.5-0.5-0.5h-1.6c-0.3,0-0.5,0.2-0.5,0.5C34.8,23.6,35,23.8,35.3,23.8z"/>
	<path d="M35.3,26.1h1.6c0.3,0,0.5-0.2,0.5-0.5c0-0.3-0.2-0.5-0.5-0.5h-1.6c-0.3,0-0.5,0.2-0.5,0.5C34.8,25.8,35,26.1,35.3,26.1z"/>
	<path d="M35.3,28.3h1.6c0.3,0,0.5-0.2,0.5-0.5c0-0.3-0.2-0.5-0.5-0.5h-1.6c-0.3,0-0.5,0.2-0.5,0.5C34.8,28.1,35,28.3,35.3,28.3z"/>
</g>
</svg>
