<?xml version="1.0" encoding="UTF-8"?>
<svg width="50px" id="Layer_1" data-name="Layer 1" xmlns="http://www.w3.org/2000/svg" version="1.1" viewBox="0 0 50 48">
  <defs>
    <style>
      .cls-1 {
        fill: #000;
        stroke-width: 0px;
      }
    </style>
  </defs>
  <path class="cls-1" d="M42.7,31.5h-5.8v-1.2h4.6V6.9h-13.5v-1.1c0,0,.2,0,.3,0,4.8,0,9.5,0,14.3,0,0,0,0,0,.1,0v25.8Z"/>
  <path class="cls-1" d="M38.1,42.1H6.2c.1-.7.2-1.5.4-2.2.3-1.8.6-3.6.9-5.4.5-2.6,1.9-4.4,4.5-5.3,1.5-.5,3-1,4.5-1.5.3-.1.6-.2.5-.6,0,0,0-.2,0-.3h1.1c0,1.6.6,3,.8,4.5,0,0,0,0,.1,0,0,0,0-.2.2-.3.7-.8,1.3-1.6,2-2.3,0-.1.3-.2.4-.2.3,0,.7,0,1,0,.3,0,.5.1.7.3.7.8,1.3,1.6,2.1,2.5.3-1.6,1-3,.9-4.6h1.2v.7c1.4.5,2.8.9,4.1,1.4,1,.3,2,.7,2.8,1.3,1.4,1.1,2.2,2.5,2.5,4.2.4,2.4.8,4.8,1.2,7.2,0,.1,0,.2,0,.4ZM17.1,28.8s0,0-.1,0c0,0,0,.1,0,.2,0,1.8,0,3.5,0,5.3,0,.2.1.3.3.3,1.1.4,1.7,1.6,1.4,2.7-.3,1.1-1.2,1.9-2.4,1.9-1.1,0-2.1-.8-2.2-1.9-.2-1.1.4-2.2,1.4-2.6.2,0,.3-.2.3-.4,0-1.6,0-3.1,0-4.7,0,0,0-.2,0-.3-1.3.4-2.5.8-3.7,1.3-1.8.7-2.9,2-3.2,3.8-.4,1.8-.6,3.7-.9,5.5,0,.4-.1.7-.2,1.1h4c.2-1.8.4-3.5.5-5.3.4,0,.8,0,1.2.1-.2,1.8-.3,3.5-.5,5.2h8.8v-9.4h1.2v9.4h8.7c0-.5,0-1-.1-1.5,0,0,0-.1,0-.2-.9.6-1.5.6-2.1.5v-1.1c1.5-.1,1.8-.4,1.7-1.8,0-.5-.2-.9-.7-1.2-.7-.3-1.3-.7-2-1-.1,0-.3,0-.4,0-.7.3-1.4.7-2.1,1.1-.4.2-.6.6-.6,1.1,0,.2,0,.4,0,.6,0,.7.5,1.2,1.2,1.2.2,0,.3,0,.5,0v1.1c-1.7.2-2.9-.8-2.9-2.5,0-1.3.5-2.2,1.7-2.8.6-.2,1.1-.5,1.6-.8.2,0,.2-.2.2-.4,0-1.4,0-2.8,0-4.2,0,0,0-.2,0-.3h-.1c-.4,1.7-.9,3.4-1.3,5.2-.1-.2-.2-.3-.3-.4-1-1.2-2-2.4-3-3.6-.3-.4-.7-.4-1,0-1,1.2-2.1,2.5-3.1,3.7,0,0-.1.1-.2.2-.4-1.8-.9-3.5-1.3-5.2ZM36.7,40.9c0,0,0-.1,0-.1-.3-2-.7-4-1-6-.4-2.2-1.6-3.7-3.7-4.4-1-.4-2.1-.7-3.1-1,0,0-.2,0-.3,0,0,1.4,0,2.7,0,4.1,0,.1.1.2.2.3.6.3,1.3.6,1.9,1,.3.2.6.5.9.7.1.1.3.2.5.4.2,1.6.3,3.4.5,5.2h4ZM16.3,35.6c-.7,0-1.2.5-1.2,1.2,0,.6.6,1.2,1.2,1.2.6,0,1.2-.5,1.2-1.2,0-.6-.5-1.2-1.2-1.2Z"/>
  <path class="cls-1" d="M22.2,27.4c-.5,0-.9,0-1.4,0-.8,0-1.5-.3-2.1-.9-.8-.8-1.7-1.7-2.5-2.5-.6-.6-1.1-1.4-1.3-2.2,0-.2-.2-.3-.4-.4-1.1-.3-1.9-1-2.2-2.1-.3-1.1,0-2.1.8-2.9.2-.2.2-.3.2-.6,0-1.2,0-2.3.3-3.5.9-3.4,3.1-5.7,6.5-6.5,3.2-.8,6.1.1,8.4,2.5,1.6,1.7,2.4,3.8,2.4,6.1,0,.2,0,.4,0,.5,0,.7,0,1.2.6,1.8,1.4,1.6.4,4.1-1.7,4.6-.2,0-.3.1-.4.4-.3.8-.7,1.6-1.3,2.2-.8.9-1.7,1.7-2.5,2.5-.6.6-1.3.8-2.2.8-.4,0-.8,0-1.2,0,0,0,0,0,0,0ZM29.8,15.8c.3-3.2-.8-6-3.5-7.7-2.8-1.7-5.7-1.7-8.4.1-2.6,1.8-3.6,4.4-3.3,7.5,1.7,0,3.4,0,5.1,0,1.5,0,2.8-.3,4-1.2.2-.1.3-.1.4,0,.7.4,1.4.9,2.2,1,1.1.1,2.3.2,3.4.3ZM15.7,16.8c0,1.1,0,2.2,0,3.3,0,1.3.6,2.3,1.5,3.2.8.8,1.5,1.5,2.3,2.3.4.4.8.6,1.4.6.8,0,1.7,0,2.5,0,.6,0,1.1-.2,1.5-.6.7-.7,1.4-1.4,2.1-2.1,1-1,1.6-2.3,1.6-3.7,0-.9,0-1.8,0-2.7,0,0,0-.1,0-.2,0,0-.1,0-.2,0-1.5,0-3-.2-4.4-1,0,0-.3,0-.4,0-1.3.7-2.8,1-4.3,1-1.2,0-2.5,0-3.7,0ZM14.5,20.2c0-.6,0-1.1,0-1.6s0-1.1,0-1.6c-.7.2-1.2.9-1.2,1.6,0,.7.4,1.4,1.2,1.6ZM29.8,20.2c.6-.1,1.1-.8,1.2-1.6,0-.8-.5-1.5-1.2-1.6v3.2Z"/>
  <path class="cls-1" d="M40.3,24.5v1.2h-4.1v-5.8h4.1v1.2h-2.9v1.2h2.9v1.2h-2.9v1.2h2.9Z"/>
  <path class="cls-1" d="M36.2,11.5v1.2h-2.9v1.2h2.9v1.2h-4v-5.8h4v1.2h-2.9v1.2h2.9Z"/>
  <path class="cls-1" d="M32.1,22.1v3.5h-3.5v-1.2h2.3v-2.3h1.2Z"/>
</svg>