<?xml version="1.0" encoding="utf-8"?>
<!-- Generator: Adobe Illustrator 24.3.0, SVG Export Plug-In . SVG Version: 6.00 Build 0)  -->
<svg width="50px" version="1.1" id="Layer_1" xmlns="http://www.w3.org/2000/svg" xmlns:xlink="http://www.w3.org/1999/xlink" x="0px" y="0px"
	 viewBox="0 0 50 48" style="enable-background:new 0 0 50 48;" xml:space="preserve">
<g>
	<path d="M38.6,17c0-1.3-0.5-2.4-1.4-3.3l-1.5-1.5l-1.1,1.1l1.5,1.5c0.6,0.6,0.9,1.4,0.9,2.3v10.2c-1-1-2.4-1.7-3.9-1.7
		c-2,0-3.7,1-4.6,2.7c-0.6-0.8-1.6-1.3-2.7-1.3s-2,0.5-2.7,1.3c-0.9-1.6-2.7-2.7-4.6-2.7c-1.6,0-2.9,0.6-3.9,1.6V17
		c0-0.9,0.3-1.6,0.9-2.3l1.5-1.5l-1.1-1.1l-1.5,1.5c-0.9,0.9-1.4,2.1-1.4,3.5v13.8c0,3,2.4,5.5,5.4,5.5s5.5-2.4,5.5-5.4
		c0-0.2,0-0.3,0-0.5c-0.1-0.6,0.2-1.2,0.6-1.6c0.3-0.3,0.8-0.5,1.3-0.5s0.9,0.2,1.3,0.5c0.5,0.4,0.6,1,0.6,1.6c0,0.2,0,0.3,0,0.5
		c0,3,2.4,5.5,5.5,5.4c3,0,5.4-2.5,5.4-5.5V17z M18.5,34.9c-2.2,0-3.9-1.8-3.9-3.9s1.8-3.9,3.9-3.9s3.9,1.8,3.9,3.9
		S20.7,34.9,18.5,34.9z M33.2,34.9c-2.2,0-3.9-1.8-3.9-3.9s1.8-3.9,3.9-3.9c2.1,0,3.9,1.8,3.9,3.9S35.3,34.9,33.2,34.9z"/>
</g>
</svg>
