<?xml version="1.0" encoding="utf-8"?>
<!-- Generator: Adobe Illustrator 24.3.0, SVG Export Plug-In . SVG Version: 6.00 Build 0)  -->
<svg width="50px" version="1.1" id="Layer_1" xmlns="http://www.w3.org/2000/svg" xmlns:xlink="http://www.w3.org/1999/xlink" x="0px" y="0px"
	 viewBox="0 0 48 48" style="enable-background:new 0 0 48 48;" xml:space="preserve">
<g id="XMLID_806_">
	<g id="XMLID_386_">
		<path id="XMLID_389_" d="M41.5,26.1c-0.3-3.4-1.9-6.6-4.3-9.1c-2.1-2.1-4.6-3.4-7.3-4v-1.9c1.1-0.3,1.9-1.3,1.9-2.4
			c0-1.4-1.1-2.5-2.5-2.5H24c-1.4,0-2.5,1.1-2.5,2.5c0,1.2,0.8,2.2,1.9,2.4v1.9c-2.7,0.6-5.2,1.9-7.3,4c-0.5,0.5-0.9,0.9-1.3,1.4
			c0,0,0,0-0.1,0H9.6c-0.4,0-0.7,0.3-0.7,0.7c0,0.4,0.3,0.7,0.7,0.7h4.3c-0.5,0.9-1,1.9-1.3,2.8h-8c-0.4,0-0.7,0.3-0.7,0.7
			c0,0.4,0.3,0.7,0.7,0.7h7.6c-0.2,0.9-0.3,1.9-0.4,2.8H8.6c-0.4,0-0.7,0.3-0.7,0.7c0,0.4,0.3,0.7,0.7,0.7h3.3
			c0.1,1,0.2,1.9,0.5,2.8H7.5c-0.4,0-0.7,0.3-0.7,0.7s0.3,0.7,0.7,0.7h5.2c0.7,1.9,1.9,3.7,3.4,5.2c2.4,2.4,5.6,4,9.1,4.3
			c0.5,0,1,0.1,1.5,0.1c2.9,0,5.7-0.8,8.1-2.4c0.3-0.2,0.4-0.7,0.2-1c-0.2-0.3-0.7-0.4-1-0.2c-5.3,3.4-12.3,2.7-16.8-1.8
			c-5.2-5.2-5.2-13.7,0-19c5.2-5.2,13.7-5.2,19,0c4.5,4.5,5.2,11.5,1.8,16.8c-0.2,0.3-0.1,0.8,0.2,1c0.3,0.2,0.8,0.1,1-0.2
			C41,32.9,41.9,29.5,41.5,26.1z M23,8.8c0-0.6,0.5-1,1-1h5.3c0.6,0,1,0.5,1,1c0,0.6-0.5,1-1,1h-0.1h-5H24C23.5,9.8,23,9.3,23,8.8z
			 M24.9,12.8v-1.6h3.6v1.5C27.3,12.7,26.1,12.7,24.9,12.8z"/>
		<path id="XMLID_391_" d="M36.7,36.9c-0.2,0-0.4,0.1-0.5,0.2C36,37.2,36,37.4,36,37.6s0.1,0.4,0.2,0.5c0.1,0.1,0.3,0.2,0.5,0.2
			c0.2,0,0.4-0.1,0.5-0.2c0.1-0.1,0.2-0.3,0.2-0.5s-0.1-0.4-0.2-0.5C37.1,37,36.9,36.9,36.7,36.9z"/>
		<path id="XMLID_394_" d="M26.7,16.2c-6.3,0-11.4,5.1-11.4,11.4s5.1,11.4,11.4,11.4s11.4-5.1,11.4-11.4S33,16.2,26.7,16.2z
			 M26.7,37.6c-5.5,0-10-4.5-10-10s4.5-10,10-10s10,4.5,10,10S32.2,37.6,26.7,37.6z"/>
		<path id="XMLID_397_" d="M31.4,21.9l-3.7,3.7c-0.3-0.2-0.6-0.2-1-0.2c-0.4,0-0.7,0.1-1,0.2L24,23.9c-0.3-0.3-0.8-0.3-1,0
			c-0.3,0.3-0.3,0.8,0,1l1.6,1.6c-0.2,0.3-0.2,0.6-0.2,1c0,1.3,1,2.3,2.3,2.3s2.3-1,2.3-2.3c0-0.4-0.1-0.7-0.2-1l3.5-3.5l0,0
			l0.1-0.1c0.3-0.3,0.3-0.8,0-1C32.1,21.6,31.6,21.6,31.4,21.9z M26.7,28.4c-0.5,0-0.8-0.4-0.8-0.8s0.4-0.8,0.8-0.8
			c0.5,0,0.8,0.4,0.8,0.8S27.1,28.4,26.7,28.4z"/>
		<path id="XMLID_398_" d="M34.6,26.9h-0.7c-0.4,0-0.7,0.3-0.7,0.7s0.3,0.7,0.7,0.7h0.7c0.4,0,0.7-0.3,0.7-0.7S35,26.9,34.6,26.9z"
			/>
		<path id="XMLID_399_" d="M19.5,26.9h-0.7c-0.4,0-0.7,0.3-0.7,0.7s0.3,0.7,0.7,0.7h0.7c0.4,0,0.7-0.3,0.7-0.7S19.9,26.9,19.5,26.9z
			"/>
		<path id="XMLID_400_" d="M26.7,21.2c0.4,0,0.7-0.3,0.7-0.7v-0.7c0-0.4-0.3-0.7-0.7-0.7S26,19.3,26,19.7v0.7
			C26,20.8,26.3,21.2,26.7,21.2z"/>
		<path id="XMLID_424_" d="M26.7,34.1c-0.4,0-0.7,0.3-0.7,0.7v0.7c0,0.4,0.3,0.7,0.7,0.7c0.4,0,0.7-0.3,0.7-0.7v-0.7
			C27.4,34.4,27.1,34.1,26.7,34.1z"/>
		<path id="XMLID_425_" d="M4.6,31.4c-0.2,0-0.4,0.1-0.5,0.2c-0.1,0.1-0.2,0.3-0.2,0.5c0,0.2,0.1,0.4,0.2,0.5
			c0.1,0.1,0.3,0.2,0.5,0.2c0.2,0,0.4-0.1,0.5-0.2c0.1-0.1,0.2-0.3,0.2-0.5c0-0.2-0.1-0.4-0.2-0.5C5,31.5,4.8,31.4,4.6,31.4z"/>
	</g>
</g>
</svg>
