<?xml version="1.0" encoding="utf-8"?>
<!-- Generator: Adobe Illustrator 24.3.0, SVG Export Plug-In . SVG Version: 6.00 Build 0)  -->
<svg width="145" version="1.1" id="Layer_1" xmlns="http://www.w3.org/2000/svg" xmlns:xlink="http://www.w3.org/1999/xlink" x="0px" y="0px"
	 viewBox="0 0 57.5 32" style="enable-background:new 0 0 57.5 32;" xml:space="preserve">
<style type="text/css">
	.st0{fill:none;}
	.st1{fill:#B5272E;}
	.st2{fill:#FFFFFF;}
	.st3{clip-path:url(#SVGID_2_);fill:#B5272E;}
	.st4{clip-path:url(#SVGID_4_);fill:#B5272E;}
</style>
<g>
	<rect x="2.3" y="1.7" class="st0" width="52.9" height="28.7"/>
	<path class="st1" d="M49.4,20.1l5-15c0.2-0.6,0.1-1.3-0.2-1.8c-0.4-0.5-0.9-0.9-1.6-0.9l-4.2-0.3c-0.1,0-0.1,0-0.2,0
		c-1,0-1.8,0.7-2,1.6l-0.3,1.2c0,0,0,0-0.1,0c-0.3-0.1-0.6-0.2-0.9-0.3c-0.1,0-0.3,0-0.4,0c-0.3,0-0.5,0-0.8,0.1c0,0,0,0,0,0
		c-0.2,0-0.4,0.1-0.6,0.2c-0.1-0.3-0.2-0.5-0.4-0.8c-0.4-0.5-0.9-0.7-1.5-0.8c0,0,0,0,0,0c0,0-0.1,0-0.1,0c-0.4,0-0.8,0.1-1.2,0.4
		c-0.1,0-0.2,0-0.3-0.1c-0.2,0-0.4,0-0.5,0c-0.3,0-0.5,0-0.8,0.1h0c-0.5,0.1-1,0.3-1.4,0.5c-0.3-0.2-0.6-0.3-1-0.3
		c-0.2,0-0.5,0-0.7,0.1c-0.6,0.2-1.1,0.4-1.6,0.6c-0.7,0.3-1.3,0.9-1.4,1.7c0,0.2,0,0.3-0.1,0.5c-0.4,0.1-0.8,0.4-1.2,0.6
		c0,0-0.1,0-0.1,0.1c-0.2-0.1-0.5-0.1-0.7-0.1c-0.2,0-0.4,0-0.5,0.1c-0.5,0.1-1,0.3-1.5,0.4C28,7.9,27.9,8,27.8,8
		c-0.2,0-0.5,0.1-0.7,0.1c0,0,0,0,0,0c-0.5,0.2-1,0.4-1.4,0.8c-0.1,0.1-0.2,0.1-0.3,0.2c-0.1,0-0.2,0-0.3-0.1c-0.1,0-0.2,0-0.4,0
		c-0.1,0-0.1,0-0.2,0c0-0.1,0-0.1,0-0.2c0-0.1-0.1-0.3-0.1-0.4c-0.1-0.2-0.1-0.4-0.3-0.9c-0.1-0.3-0.3-0.5-0.5-0.7
		c-0.2-0.1-0.3-0.1-0.5-0.1c-0.1,0-0.2,0-0.4,0.1C22.5,6.9,22.4,7,22.2,7c-0.1,0-0.2,0.1-0.3,0.1c0,0,0,0-0.1,0c-0.1,0-0.2,0-0.3,0
		c-0.2,0.1-0.3,0.1-0.5,0.1c0,0-0.1,0-0.1,0c-0.1,0-0.2,0-0.3,0.1c-0.2,0.1-0.5,0.2-0.7,0.3c-0.1,0-0.2,0-0.2,0
		c-0.2,0-0.3,0-0.5,0.1c-0.1,0-0.1,0-0.1,0.1c-0.3-0.3-0.6-0.4-1-0.4c-0.2,0-0.3,0-0.5,0.1c-0.2,0.1-0.5,0.2-0.6,0.4
		c0,0-0.1,0-0.1,0.1c0,0,0,0-0.1,0c0-0.2-0.2-0.5-0.4-0.6c-0.2-0.2-0.4-0.3-0.7-0.3c-0.1,0-0.3,0-0.4,0.1c-0.2,0.1-0.2,0.1-0.4,0.2
		c-0.4,0.1-0.6,0.5-0.7,0.9c0,0.2,0,0.4-0.1,0.6C14,9.2,13.7,9.6,13.5,10c0,0.1-0.1,0.2-0.1,0.3c-0.2,0-0.4,0.1-0.6,0.2c0,0,0,0,0,0
		c-0.1-0.1-0.2-0.2-0.4-0.2c-0.1,0-0.2-0.1-0.4-0.1c-0.2,0-0.4,0.1-0.6,0.2c-0.2,0.1-0.3,0.2-0.5,0.3c-0.3,0.2-0.5,0.6-0.4,1
		c-0.2,0.2-0.3,0.4-0.4,0.6c-0.1,0-0.2,0-0.3,0c-0.3,0-0.6,0.1-0.8,0.3c0,0,0,0,0,0c-0.1-0.1-0.2-0.1-0.4-0.2c-0.1,0-0.2,0-0.3,0
		c-0.3,0-0.5,0.1-0.7,0.3c-0.2,0.2-0.3,0.2-0.5,0.4c-0.3,0.3-0.4,0.7-0.3,1.1c-0.1,0.1-0.1,0.1-0.1,0.2c-0.2,0-0.5,0.1-0.7,0.3
		c-0.1,0-0.1,0.1-0.2,0.1c-0.2-0.1-0.4-0.1-0.6-0.1c-0.3,0-0.8,0.1-1.3,0.5C3.4,15.6,3,16.3,3,17c0,0.5,0.1,1,0.4,1.3
		c0.3,0.3,0.7,0.5,1,0.5c0.1,0.1,0.1,0.3,0.2,0.4c0.1,0.2,0.2,0.3,0.4,0.4c-0.1,0.5,0,0.9,0.3,1.3c0.5,0.8,1.1,1.7,1.7,2.7
		c0.4,0.5,0.9,0.9,1.6,0.9c0,0,0,0,0,0.1c-0.2,0.4-0.3,0.8-0.4,1.2c-0.1,0.5,0,0.9,0.1,1.4c0.1,0.4,0.3,0.8,0.5,1.2c0,0,0,0,0,0
		c0.2,0.4,0.5,0.7,0.8,0.9c0.4,0.3,0.8,0.5,1.3,0.5c0.1,0,0.2,0,0.3,0c0.2,0,0.4,0,0.6-0.1c0.3-0.1,0.5-0.2,0.7-0.3c0,0,0,0,0,0
		c0.2-0.1,0.4-0.3,0.5-0.4c0.2-0.1,0.3-0.1,0.5-0.2c0.2-0.1,0.3-0.2,0.5-0.3c0.2-0.1,0.4-0.1,0.6-0.2c0.3-0.1,0.5-0.3,0.8-0.6
		c0.1,0,0.2,0,0.2,0c0.1,0,0.2,0,0.3-0.1c0.2,0.1,0.4,0.3,0.7,0.4c0.3,0.1,0.6,0.2,1,0.3c0.2,0,0.3,0,0.5,0c0.4,0,0.8,0,1.2-0.1
		c0.5-0.1,1-0.3,1.5-0.5c0.6-0.3,1.2-0.6,1.7-1c0.1,0,0.1,0,0.2,0c0.2,0,0.3,0,0.5,0c0.4,0,0.7,0,1.2-0.1l0,0c0,0,0,0,0,0
		c0,0,0,0,0,0c0.6-0.1,1.1-0.3,1.6-0.6c0.2,0.1,0.4,0.1,0.6,0.1c0.1,0,0.3,0,0.4,0c0.1,0,0.2,0,0.3,0c0,0,0,0,0.1,0
		c0.4,0,0.8-0.1,1.2-0.3c0.2,0.1,0.5,0.1,0.7,0.2c0.1,0,0.3,0,0.4,0h0c0.2,0,0.6,0,1.2-0.2c0.3,0.1,0.7,0.3,1,0.3c0,0,0,0,0,0
		c0,0,0,0,0.1,0c0,0,0.1,0,0.1,0c0.1,0,0.2,0,0.3,0c0.4,0,0.7,0,1-0.1c0,0,0.1,0.1,0.1,0.1c0.4,0.2,0.9,0.4,1.4,0.5c0,0,0,0,0,0l0,0
		c0.1,0,0.2,0,0.3,0c0.1,0,0.3,0,0.4,0c0.4,0,0.8-0.1,1.2-0.2c0,0.1,0.1,0.1,0.1,0.1c0.4,0.4,0.9,0.7,1.5,0.9c0,0,0,0,0,0
		c0.3,0.1,0.5,0.1,0.7,0.2c0.1,0,0.3,0,0.4,0c0.3,0,0.6,0,0.9-0.1c0.3-0.1,0.6-0.2,0.9-0.4c0.3,0.4,0.7,0.8,1.2,1.1
		c0.5,0.3,1.1,0.5,1.7,0.6c0,0,0,0,0,0c0,0,0.1,0,0.1,0c0,0,0,0,0,0c0.1,0,0.2,0,0.3,0c0.5,0,1-0.1,1.5-0.3c0.8-0.3,1.5-0.8,2-1.5
		c0.5-0.7,0.8-1.5,0.9-2.3c0,0,0,0,0,0c0-0.1,0-0.1,0-0.2c0,0,0,0,0,0c0.1-1.2-0.2-2.3-0.9-3.2c0,0,0-0.1-0.1-0.1
		C48.9,21,49.2,20.6,49.4,20.1"/>
	<rect x="2.3" y="1.7" class="st0" width="52.9" height="28.7"/>
	<path class="st2" d="M6.9,17.2c-0.1,0.1-0.2,0.2-0.2,0.3c-0.2,0.1-0.3,0.1-0.4,0c-0.1-0.2-0.3-0.6-0.4-0.9c-0.1-0.1-0.2-0.2-0.3,0
		c0,0-0.1,0.1-0.1,0.1c0.3,0.5,0.4,0.7,0.6,1.2c-0.2,0.1-0.2,0.2-0.4,0.3c-0.4-0.8-0.7-1.2-1.1-2.1c0.2-0.2,0.2-0.3,0.4-0.4
		c0.1,0.3,0.2,0.5,0.4,0.8c0,0,0,0,0,0c0.2-0.2,0.2-0.6,0-0.8c-0.1-0.2-0.3-0.2-0.6,0c-0.5,0.4-0.6,0.9-0.2,1.3
		c0.1,0.1,0.2,0.1,0.2,0.1c-0.2,0.2-0.4,0.2-0.5,0c-0.3-0.4-0.1-1.2,0.4-1.6c0.5-0.4,0.9-0.3,1-0.1c0.1,0.2,0.2,0.5,0.1,0.7
		c0.2-0.1,0.3,0,0.4,0.1c0.2,0.2,0.3,0.6,0.4,0.8C6.7,17.2,6.8,17.2,6.9,17.2 M10.2,14.8c-0.2,0.1-0.4,0.2-0.6,0
		c0,0.3-0.2,0.5-0.3,0.6c-0.2,0.1-0.3,0.1-0.5-0.1c0,0.2,0,0.4-0.3,0.6c-0.2,0.1-0.4,0.2-0.6-0.1c0,0.3-0.1,0.6-0.4,0.9
		c-0.3,0.2-0.6,0.2-0.8-0.1c-0.3-0.3-0.6-1.2,0-1.6c0.3-0.2,0.4-0.1,0.5,0c0.2,0.3,0.1,0.8-0.2,1.1c0,0,0.1,0.1,0.1,0.1
		c0.1,0.2,0.3,0.2,0.4,0.1c0.2-0.2,0.3-0.4,0.3-0.6c-0.3-0.4-0.5-1.2,0.1-1.6c0.2-0.1,0.3-0.1,0.4,0c0,0,0,0,0,0
		c-0.1-0.3-0.2-0.5-0.3-0.8c0.2-0.2,0.3-0.2,0.4-0.4c0.3,0.7,0.4,1.1,0.7,1.9c0,0,0,0.1,0.1,0.1C9.2,15,9.3,15,9.3,15
		c0.1-0.1,0.1-0.2,0.1-0.3c0,0,0,0,0,0c-0.2-0.3-0.5-1.2,0.2-1.6c0.3-0.2,0.4-0.1,0.5,0.1c0.2,0.4,0,0.8-0.3,1.1c0,0,0,0.1,0.1,0.1
		c0.1,0.2,0.2,0.2,0.4,0.1c0.1-0.1,0.2-0.2,0.3-0.4C10.6,14.4,10.5,14.7,10.2,14.8 M6.9,16c0.2-0.2,0.3-0.6,0.1-0.8
		c-0.1-0.1-0.1-0.1-0.2-0.1C6.7,15.2,6.8,15.7,6.9,16 M8.6,15.1C8.6,15.1,8.6,15.1,8.6,15.1c-0.1-0.3-0.2-0.5-0.3-0.8
		c0,0-0.1-0.1-0.2,0c-0.3,0.2-0.1,0.8,0.1,1.1c0.2,0.2,0.3,0.2,0.3,0.1C8.6,15.4,8.7,15.3,8.6,15.1 M9.7,14c0.2-0.2,0.3-0.5,0.1-0.8
		c0-0.1-0.1-0.1-0.2-0.1C9.6,13.3,9.6,13.7,9.7,14"/>
	<rect x="2.3" y="1.7" class="st0" width="52.9" height="28.7"/>
	<path class="st2" d="M14.1,12c-0.1,0.1-0.2,0.3-0.3,0.4c-0.1,0.1-0.2,0-0.3-0.2c0,0,0-0.1,0-0.1c0.4-0.2,0.6-0.7,0.4-1.1
		c-0.1-0.2-0.2-0.3-0.5-0.1c-0.7,0.3-0.5,1.2-0.3,1.6c0,0,0,0,0,0c0,0.1,0,0.2-0.1,0.3c-0.1,0.1-0.1,0-0.2,0c0,0,0-0.1,0-0.1
		c-0.2-0.8-0.3-1.2-0.5-1.9c-0.2,0.1-0.3,0.2-0.5,0.3c0.1,0.3,0.1,0.5,0.2,0.8c0,0,0,0,0,0c-0.1-0.1-0.2-0.1-0.4,0
		c-0.6,0.3-0.5,1.2-0.2,1.6c0.2,0.4,0.5,0.4,0.7,0.3c0.2-0.1,0.3-0.4,0.3-0.6c0.1,0.2,0.3,0.2,0.5,0.1c0.1-0.1,0.3-0.2,0.4-0.5
		c0.2,0.2,0.4,0.2,0.6,0.1C14,12.7,14.2,12.4,14.1,12 M12,13.3c-0.1,0-0.2,0.1-0.3-0.2c-0.2-0.3-0.3-1,0-1.1c0.1-0.1,0.2,0,0.2,0
		c0.1,0.3,0.1,0.5,0.2,0.8c0,0,0,0,0,0C12.2,13.1,12.1,13.3,12,13.3 M13.4,11.1c0.1,0,0.1,0,0.1,0.1c0.1,0.3,0,0.6-0.2,0.8
		C13.2,11.6,13.2,11.2,13.4,11.1"/>
	<rect x="2.3" y="1.7" class="st0" width="52.9" height="28.7"/>
	<path class="st2" d="M15.7,8.6c-0.1,0-0.2,0.1-0.3,0.1c0-0.3,0-0.5,0.1-0.8c0.2-0.1,0.2-0.1,0.4-0.2C15.8,8.1,15.7,8.3,15.7,8.6
		 M15.6,8.9c-0.8,0.3-1.2,1.1-1,1.5c0.1,0.2,0.3,0.2,0.5,0.1c0,0-0.1,0-0.1-0.2c-0.2-0.5,0.1-1.1,0.6-1.3c0.4-0.2,0.5,0,0.7,0.4
		c0.3,0.7,0.3,1.7-0.1,1.8c-0.1,0.1-0.3-0.1-0.4-0.3c-0.2-0.5-0.3-1.5-0.1-1.8c-0.1,0-0.1,0-0.2,0.1c-0.6,0.3-0.5,1.4-0.3,2
		c0.2,0.5,0.5,0.6,0.9,0.4c0.9-0.4,0.8-1.6,0.6-2.2C16.6,8.9,16.2,8.7,15.6,8.9 M18.3,8.7c0.2-0.1,0.3-0.2,0.2-0.4
		c-0.1-0.2-0.2-0.2-0.4-0.2c-0.2,0.1-0.2,0.2-0.2,0.4C17.9,8.6,18.1,8.7,18.3,8.7 M22.9,9.5c-0.3,0.1-0.4,0-0.5-0.1
		c-0.1,0.3-0.3,0.3-0.4,0.4c-0.2,0.1-0.4,0-0.4-0.2c-0.1,0.2-0.2,0.4-0.4,0.5c-0.2,0.1-0.5,0-0.6-0.3c-0.1,0.3-0.3,0.6-0.7,0.7
		c-0.3,0.1-0.5,0-0.6-0.2c-0.1,0.3-0.3,0.5-0.5,0.5c-0.2,0.1-0.4,0-0.5-0.2c-0.1,0.3-0.3,0.5-0.4,0.5c-0.2,0.1-0.4,0-0.5-0.3
		c0-0.1,0-0.1-0.1-0.2c-0.1-0.4-0.1-0.6-0.2-1c0,0-0.1,0-0.1,0c0-0.1,0-0.1,0-0.1c0,0,0.1,0,0.1,0c0-0.2,0-0.3-0.1-0.5
		c0.2-0.1,0.3-0.2,0.5-0.3c0,0.2,0,0.4,0.1,0.6c0.1,0,0.1,0,0.2-0.1c0,0.1,0,0.1,0,0.1c-0.1,0-0.1,0-0.2,0.1
		c0.1,0.4,0.1,0.7,0.2,1.1c0,0,0,0.1,0,0.1c0,0.1,0.1,0.1,0.2,0.1c0.1-0.1,0.2-0.2,0.2-0.4l0,0l0,0C18,9.7,18,9.4,18,9
		c0.2-0.1,0.3-0.1,0.5-0.2c0.1,0.5,0.1,0.8,0.1,1.3c0,0.1,0,0.1,0,0.1c0,0.1,0.1,0.1,0.2,0.1c0.1,0,0.2-0.2,0.2-0.3c0,0,0,0,0,0
		c-0.1-0.4-0.2-1.3,0.6-1.6c0.3-0.1,0.5,0,0.5,0.2c0.1,0.2,0,0.3-0.1,0.3c0,0-0.1,0-0.1,0c0-0.1,0-0.2,0-0.2c0-0.1-0.1-0.1-0.1-0.1
		c-0.2,0.1-0.3,0.8-0.1,1.2c0.1,0.2,0.2,0.3,0.3,0.2c0.3-0.1,0.4-0.3,0.5-0.5C20.3,9,20.3,8.2,21,8c0.2-0.1,0.3,0,0.3,0.1
		c0,0,0,0,0,0c0-0.1,0-0.1,0-0.2c0.2-0.1,0.3-0.1,0.5-0.1c0,0.5,0,0.8,0,1.3c0,0.1,0,0.1,0,0.1c0,0.1,0.1,0.1,0.2,0.1
		c0.1,0,0.1-0.1,0.2-0.1c0,0,0,0,0,0c0-0.2,0-0.3,0.1-0.4c0.1-0.4,0.2-0.8,0.2-1.2c0.2-0.1,0.3-0.1,0.5-0.2c0.3,0.9,0.3,1.1,0.4,1.3
		C23.6,9.1,23.2,9.4,22.9,9.5 M21.4,9.1c0-0.3,0-0.5,0-0.9c0,0-0.1-0.1-0.2-0.1c-0.3,0.1-0.3,0.8-0.2,1.1c0.1,0.3,0.2,0.2,0.3,0.2
		C21.3,9.5,21.4,9.3,21.4,9.1 M23,8.8c0-0.2-0.1-0.3-0.3-0.8c0,0.3-0.1,0.5-0.1,0.7c0.1,0,0.1,0,0.1,0.1c0,0.1,0,0.2-0.1,0.2
		c0,0-0.1,0-0.1,0c0,0,0,0,0,0c0,0.1,0.1,0.2,0.3,0.2C22.9,9.2,23,9,23,8.8"/>
	<rect x="2.3" y="1.7" class="st0" width="52.9" height="28.7"/>
	<path class="st2" d="M43.6,8.4L43.6,8.4L43.6,8.4L43.6,8.4z M20.5,25.4L20.5,25.4L20.5,25.4L20.5,25.4z M18.1,17.7L18.1,17.7
		L18.1,17.7L18.1,17.7z M24.7,24.3L24.7,24.3L24.7,24.3L24.7,24.3z M27.9,23.6L27.9,23.6L27.9,23.6L27.9,23.6z M30.5,23.5L30.5,23.5
		L30.5,23.5L30.5,23.5z M33,23.6L33,23.6L33,23.6L33,23.6z M36,20.1L36,20.1L36,20.1L36,20.1z M12.8,22.9L12.8,22.9L12.8,22.9
		L12.8,22.9z M10.2,24L10.2,24L10.2,24z M44.1,19.4c0.2,0.2,0.4,0.4,0.7,0.4l2.5,0.2c0.5,0,0.9-0.2,1-0.7l5-15
		c0.1-0.3,0.1-0.6-0.1-0.9C53.1,3.2,52.8,3,52.5,3l-4.2-0.3c-0.5,0-0.9,0.3-1,0.8l-0.5,2.1c-0.1,0-0.1,0-0.2,0c-0.1,0-0.2,0-0.3,0.1
		c-0.1,0-0.2,0.1-0.3,0.1l0,0c-0.1-0.1-0.3-0.3-0.5-0.4c-0.2-0.1-0.4-0.1-0.6-0.2c-0.3,0-0.6,0-0.8,0.1h0c-0.5,0.1-1,0.4-1.4,0.7
		c-0.3,0.2-0.5,0.5-0.7,0.7c0-0.1-0.1-0.3-0.2-0.4c0,0-0.1-0.1-0.1-0.1c0.1-0.1,0.2-0.3,0.3-0.5c0.1-0.2,0.2-0.4,0.2-0.6
		c0.1-0.3,0-0.6-0.2-0.8C41.7,4.1,41.5,4,41.2,4c0,0,0,0,0,0h0c-0.3,0-0.6,0.1-0.8,0.4c0,0,0,0-0.1,0c-0.1,0-0.1,0-0.2,0
		c-0.1,0-0.3-0.1-0.6-0.1c-0.3,0-0.6,0-1,0l0,0c-0.6,0.1-1.1,0.4-1.5,0.7c-0.1,0.1-0.1,0.1-0.2,0.2c-0.1-0.1-0.2-0.3-0.3-0.4
		c-0.3-0.2-0.6-0.3-1-0.2c-0.5,0.2-1.1,0.4-1.6,0.6c-0.4,0.1-0.6,0.4-0.6,0.8c0,0.4-0.1,0.8-0.1,1.2c-0.1,0-0.2,0-0.3,0h0
		c-0.5,0.1-0.9,0.3-1.3,0.6c-0.2,0.2-0.4,0.4-0.6,0.6c-0.1-0.1-0.1-0.2-0.2-0.3c-0.2-0.2-0.6-0.3-0.9-0.2c-0.5,0.1-1,0.3-1.5,0.4
		c-0.1,0-0.2,0.1-0.2,0.1c-0.2,0-0.5,0.1-0.7,0.1l0,0c-0.4,0.1-0.8,0.3-1.1,0.6c-0.2,0.2-0.5,0.4-0.6,0.6c-0.2-0.1-0.5-0.2-0.7-0.3
		c-0.4,0-0.8,0-1.2,0.2l0,0c-0.4,0.1-0.8,0.3-1.1,0.6c-0.2,0.2-0.4,0.4-0.6,0.6C22,11,21.8,11,21.7,10.9c-0.3,0-0.6,0-0.9,0.1
		c-0.2,0.1-0.4,0.2-0.6,0.4c-0.1,0-0.3,0-0.4,0.1c-0.5,0.2-0.9,0.4-1.4,0.6c-0.2,0.1-0.4,0.3-0.5,0.5h0c-0.3,0-0.5,0-0.7,0.1
		c-0.2,0.1-0.5,0.2-0.7,0.3l0,0c-0.6,0.3-1.1,0.8-1.5,1.3c-0.1,0.1-0.2,0.3-0.3,0.4c-0.1-0.1-0.3-0.2-0.4-0.3
		c-0.2-0.1-0.4-0.2-0.7-0.2c-0.4,0-0.7,0-1.1,0.1c-0.3,0.1-0.6,0.3-0.9,0.5h0c-0.3,0.2-0.5,0.4-0.8,0.8c-0.1,0.1-0.2,0.3-0.3,0.4
		c-0.2,0-0.4,0.1-0.6,0.1c-0.3,0.1-0.6,0.3-0.9,0.5l0,0c-0.2,0.2-0.5,0.4-0.7,0.7c0,0,0,0,0,0.1c-0.1,0-0.3,0.1-0.4,0.2
		c-0.5,0.4-1,0.7-1.5,1.1c-0.4,0.3-0.5,0.9-0.2,1.3c0.6,0.9,1.1,1.8,1.7,2.7c0.3,0.5,0.9,0.6,1.4,0.3c0.5-0.3,1-0.6,1.4-0.8
		c0.2-0.1,0.3-0.3,0.4-0.5c0.2,0,0.4,0,0.6-0.1c0.5-0.3,1-0.5,1.5-0.8c0.4-0.2,0.6-0.6,0.5-1.1c0.1,0,0.3,0.1,0.4,0.1
		c0.3,0,0.5,0,0.8,0c0.3-0.1,0.5-0.2,0.8-0.3c0.3-0.1,0.5-0.3,0.8-0.6c0.2,0,0.4,0,0.6-0.1c0.3,0,0.5-0.1,0.7-0.2
		c0.4-0.2,0.8-0.4,1.1-0.7c0.2,0,0.3,0,0.5,0c-0.4,0.3-0.8,0.5-1.2,0.8c-0.2,0.1-0.4,0.4-0.4,0.6c-0.1,0.7-0.3,1.3-0.4,2
		c0,0.1,0,0.2,0,0.2c-0.3,0.3-0.6,0.6-0.9,0.9c-0.1,0.1-0.2,0.3-0.3,0.4c-0.1-0.2-0.2-0.4-0.4-0.8c-0.1-0.2-0.4-0.4-0.6-0.5
		c-0.3-0.1-0.6,0-0.8,0.1l-0.6,0.4c-0.1,0.1-0.3,0.2-0.3,0.4c-0.1,0-0.3,0-0.4,0c-0.2,0-0.3,0.1-0.4,0.1c-0.1,0.1-0.3,0.2-0.4,0.2
		c-0.1-0.2-0.3-0.4-0.6-0.5c-0.3-0.1-0.6,0-0.9,0.2L10.2,23c-0.3,0.3-0.5,0.7-0.3,1.1l0,0.1c-0.2,0.1-0.3,0.3-0.4,0.5
		c-0.2,0.3-0.2,0.6-0.3,0.8c0,0.4,0,0.7,0.1,1.1c0.1,0.3,0.2,0.6,0.4,0.9l0,0c0.1,0.2,0.3,0.4,0.5,0.6c0.2,0.2,0.5,0.3,0.8,0.3
		c0.2,0,0.4,0,0.6,0c0.2,0,0.3-0.1,0.5-0.2l0,0c0.2-0.1,0.4-0.3,0.5-0.4c0,0,0.1,0,0.1,0c0.2,0,0.3-0.1,0.4-0.2
		c0.1-0.1,0.3-0.2,0.5-0.4c0.1,0,0.1,0,0.2,0c0.2,0,0.3-0.1,0.5-0.2c0.3-0.1,0.6-0.4,0.7-0.7c0.2,0,0.4,0,0.5,0
		c0.2,0,0.3-0.1,0.5-0.2l0,0c0.1,0,0.2-0.1,0.2-0.1c0.1,0.1,0.1,0.2,0.2,0.3l0,0l0,0l0,0l0,0c0.2,0.2,0.4,0.3,0.6,0.4
		c0.2,0.1,0.5,0.1,0.7,0.2c0.5,0.1,0.9,0,1.4-0.1c0.5-0.1,0.9-0.3,1.4-0.4h0c0.6-0.2,1.2-0.6,1.6-1c0.1-0.1,0.1-0.1,0.2-0.2
		c0.2,0.1,0.4,0.1,0.6,0.2c0.5,0.1,0.9,0,1.3-0.1c0.6-0.1,1.1-0.4,1.6-0.7c0.1,0,0.1-0.1,0.1-0.1l0,0c0.3,0.2,0.6,0.3,0.9,0.3
		c0.2,0,0.4,0,0.5,0h0c0.3,0,0.7-0.1,1.1-0.3c0.1,0,0.1-0.1,0.2-0.1c0.3,0.2,0.6,0.3,0.9,0.3c0.1,0,0.2,0,0.3,0h0
		c0.3,0,0.7,0,1.1-0.2c0.1,0,0.1-0.1,0.2-0.1c0.1,0.1,0.1,0.1,0.2,0.1c0.3,0.2,0.6,0.3,0.9,0.3c0,0,0,0,0.1,0h0c0.3,0,0.7,0,1.2-0.2
		c0.1,0,0.2-0.1,0.3-0.1c0.2,0.1,0.3,0.3,0.5,0.4c0.3,0.2,0.7,0.3,1.1,0.4c0.1,0,0.1,0,0.2,0c0.5,0.1,1,0,1.4-0.2
		c0.2-0.1,0.3-0.2,0.5-0.3c0.1,0.3,0.3,0.6,0.5,0.8c0.3,0.3,0.7,0.5,1.1,0.7l0,0l0,0c0.2,0.1,0.3,0.1,0.5,0.1c0.3,0,0.6,0,0.9-0.1
		c0.2-0.1,0.5-0.2,0.7-0.3c0.3-0.2,0.6-0.5,0.8-0.9c0.1,0.4,0.3,0.8,0.6,1.2c0.3,0.3,0.6,0.7,1,0.9c0.4,0.2,0.8,0.4,1.3,0.4
		c0,0,0.1,0,0.1,0l0,0c0.5,0,0.9,0,1.3-0.2c0.6-0.2,1.1-0.6,1.5-1.2c0.4-0.5,0.6-1.2,0.7-1.8c0-0.1,0-0.1,0-0.2l0,0
		c0.1-0.9-0.2-1.8-0.7-2.5c-0.3-0.3-0.6-0.6-1-0.9c-0.4-0.2-0.8-0.4-1.2-0.4c0,0-0.1,0-0.1,0l0,0c-0.5,0-0.9,0-1.3,0.2
		c-0.6,0.2-1.1,0.6-1.5,1.1c0.1-0.6,0.1-1.3,0.3-2.4c0-0.2,0-0.4,0.1-0.6c0-0.3-0.1-0.6-0.2-0.8c-0.2-0.2-0.5-0.3-0.7-0.3
		c-0.6,0-1.1,0-1.7,0c-0.3,0-0.6,0.2-0.8,0.4c-0.1,0.2-0.3,0.4-0.4,0.6c-0.1-0.3-0.3-0.6-0.6-0.8c-0.3-0.3-0.7-0.4-1.1-0.4
		c-0.1,0-0.2,0-0.2,0h0c-0.7,0-1.3,0.2-1.8,0.5c-0.2,0.1-0.4,0.2-0.5,0.4c0.1-0.6,0.3-1.3,0.5-1.9c0.1-0.3,0-0.7-0.3-0.9
		c-0.2-0.2-0.6-0.3-0.9-0.3c-0.6,0.1-1.2,0.3-1.8,0.4c-0.4,0.1-0.6,0.4-0.7,0.7c-0.1,0.5-0.2,1-0.3,1.4c-0.2-0.1-0.3-0.1-0.5-0.1
		c-0.5,0.1-1.1,0.2-1.6,0.3c-0.2,0-0.4,0.1-0.5,0.3c-0.2-0.1-0.4-0.1-0.6-0.1c-0.5,0.1-1.1,0.2-1.6,0.4c-0.3,0.1-0.5,0.3-0.7,0.6
		c-0.1-0.1-0.3-0.1-0.4-0.1c-0.2,0-0.4,0-0.7,0c-0.2,0-0.3,0.1-0.5,0.1c-0.3,0-0.6,0.1-0.8,0.3c-0.1,0.1-0.1,0.1-0.2,0.2
		c-0.3,0.2-0.6,0.5-0.9,0.7c-0.1,0-0.1,0.1-0.2,0.1l0,0c-0.3-0.2-0.6-0.3-0.9-0.3c0,0-0.1,0-0.1,0c0.1-0.4,0.3-0.7,0.4-1.1
		c0.1-0.4,0-0.8-0.3-1.1c-0.1-0.1-0.3-0.2-0.5-0.2c0.1,0,0.2-0.1,0.3-0.1c0.4-0.1,0.7-0.6,0.7-1c-0.1-0.7-0.1-1.5-0.2-2.2h0.1
		c0,0.2,0.1,0.5,0.1,0.7c0.1,0.2,0.2,0.4,0.3,0.6c0.2,0.3,0.4,0.5,0.7,0.7c0.3,0.2,0.6,0.3,0.9,0.3c0.4,0,0.8,0,1.2-0.1
		c0.6-0.1,1.1-0.4,1.5-0.8c0.1-0.1,0.1-0.1,0.2-0.2c0.3,0.1,0.5,0.2,0.8,0.2c0.3,0,0.6,0,0.8,0c0.3-0.1,0.5-0.2,0.7-0.3
		c0.1-0.1,0.3-0.2,0.4-0.3c0.2,0.1,0.3,0.1,0.5,0.1c0.2,0,0.4,0,0.6,0h0c0.3-0.1,0.7-0.2,1-0.4c0.1-0.1,0.1-0.1,0.2-0.2
		c0.2,0.1,0.5,0.2,0.7,0.2c0.2,0,0.4,0,0.6,0l0,0c0.3,0,0.6-0.1,0.8-0.2c0.2-0.1,0.3-0.2,0.4-0.3c0.2,0.1,0.4,0.2,0.7,0.2
		c0.1,0,0.3,0,0.4,0h0c0.1,0,0.3,0,0.5-0.1c0.3-0.1,0.5-0.2,0.8-0.4c0.3,0.2,0.7,0.3,1,0.4c0.2,0,0.3,0,0.5,0l0,0
		c0.3,0,0.6-0.1,0.8-0.2c0.1-0.1,0.3-0.2,0.4-0.2c0.2,0.2,0.5,0.3,0.8,0.3c0.1,0,0.2,0,0.4,0h0c0.2,0,0.4,0,0.7-0.1
		c0.2-0.1,0.4-0.2,0.6-0.3c0.1-0.1,0.3-0.2,0.4-0.4l0,0c0.2,0.1,0.4,0.3,0.6,0.3c0.2,0.1,0.4,0.1,0.6,0.2c0.3,0,0.5,0,0.8,0
		c0.4-0.1,0.8-0.2,1.2-0.5c0.1-0.1,0.1-0.1,0.2-0.2L44,18.6C43.9,18.9,44,19.2,44.1,19.4"/>
	<g>
		<defs>
			<rect id="SVGID_1_" x="2.3" y="1.7" width="52.9" height="28.7"/>
		</defs>
		<clipPath id="SVGID_2_">
			<use xlink:href="#SVGID_1_"  style="overflow:visible;"/>
		</clipPath>
		<path class="st3" d="M13,25.1c-0.2,0.1-0.3,0-0.4-0.2c-0.2-0.4-0.4-1.4,0-1.5c0.1-0.1,0.2,0,0.3,0.2c-0.1,0.1-0.1,0.2,0,0.3
			c0.1,0.1,0.1,0.2,0.2,0.1C13.3,24.4,13.2,24.9,13,25.1 M10.8,26.3c-0.1,0-0.2,0.1-0.4-0.2c-0.2-0.4-0.5-1.3-0.1-1.5
			c0.1-0.1,0.2,0,0.3,0l0.4,1.1l0,0C11.1,26,10.9,26.2,10.8,26.3 M14.3,22l-0.6,0.4c0,0.6-0.1,0.9-0.4,1.1c-0.2-0.4-0.5-0.6-0.9-0.4
			c-0.9,0.5-0.7,1.6-0.4,2.2c0,0,0.1,0.1,0.1,0.1c0,0.1-0.1,0.2-0.1,0.3c-0.1,0.1-0.2,0.1-0.3-0.1c0,0,0-0.1-0.1-0.1l-0.9-2.6
			l-0.6,0.5l0.4,1.1l0,0c-0.1-0.1-0.2-0.2-0.5,0c-0.7,0.4-0.5,1.6-0.2,2.1c0.3,0.5,0.7,0.5,1,0.3c0.3-0.2,0.4-0.5,0.4-0.8
			c0.2,0.2,0.4,0.2,0.6,0.1c0.2-0.1,0.4-0.3,0.4-0.7c0.2,0.2,0.5,0.2,0.8,0c0.5-0.3,0.7-1,0.4-1.9c0.2-0.2,0.4-0.5,0.4-1
			c0.5,0.8,0.6,0.9,0.7,1.1c0.2,0.3,0.1,0.4-0.1,0.5c-0.2,0.1-0.3,0-0.4-0.2c0,0,0.1,0,0.1,0c0.1-0.1,0.2-0.2,0.1-0.3
			c-0.1-0.1-0.2-0.1-0.3-0.1c-0.2,0.1-0.2,0.3-0.1,0.6c0.1,0.3,0.4,0.5,0.9,0.3c0.4-0.2,0.7-0.6,0.4-1.1C15,23.2,14.9,23.1,14.3,22"
			/>
	</g>
	<rect x="2.3" y="1.7" class="st0" width="52.9" height="28.7"/>
	<path class="st1" d="M16,15.5c-0.1-0.7,0-1.6,0.4-1.8c0.2-0.1,0.3,0,0.4,0.2C17,14.4,16.7,15.1,16,15.5 M18.4,15.7
		c0,0.2,0.1,0.5,0.1,0.7c0.4-0.1,0.9-0.3,1.3-0.4c-0.1-1-0.2-2-0.3-3.1c0.2-0.3,0.3-0.4,0.6-0.6c0.3-0.1,0.2,0.5,0.7,0.3
		c0.5-0.2,0.6-0.5,0.5-0.8c-0.1-0.3-0.4-0.5-0.9-0.3c-0.5,0.2-0.7,0.6-1,0.9c0-0.2,0-0.3,0-0.5c-0.5,0.2-0.9,0.4-1.4,0.6
		c0.1,0.9,0.2,1.7,0.3,2.6c-0.3,0.5-0.6,1-1.2,1.2c-0.4,0.2-0.7,0.2-0.9-0.3c0-0.1-0.1-0.2-0.1-0.3c1.1-0.5,1.8-1.6,1.4-2.3
		c-0.2-0.3-0.5-0.5-1.3-0.1c-1.9,1-1.7,2.7-1.3,3.4c0,0,0.1,0.1,0.1,0.1c0,0-0.1,0-0.1,0.1c-0.3,0.2-0.5,0.1-0.6,0
		c-0.3-0.4-0.5-1.5-0.9-2c-0.4-0.5-1.1-0.3-1.8,0.1c-0.4,0.3-0.9,0.8-1,1.5c-0.5-0.2-1-0.1-1.5,0.3c-0.4,0.3-0.8,0.7-0.9,1.2
		C8,18,7.9,17.9,7.9,17.8c-0.5,0.4-1,0.7-1.4,1.1c0.6,0.9,1.1,1.8,1.7,2.7c0.5-0.3,1-0.6,1.4-0.9c-0.4-0.6-0.7-1.3-1.1-1.9
		c-0.1-0.3-0.1-0.7,0.3-1c0.2-0.2,0.4-0.1,0.5,0c0.1,0,0.1,0.1,0.1,0.1c0.4,0.7,0.8,1.5,1.2,2.2c0.5-0.3,1-0.6,1.5-0.8
		c-0.4-0.7-0.7-1.5-1.1-2.2c-0.1-0.4-0.1-0.8,0.3-1.1c0.3-0.2,0.5-0.2,0.7,0c0.3,0.4,0.6,1.4,0.9,1.8c0.3,0.3,0.9,0.5,1.7,0.1
		c0.4-0.2,0.7-0.5,0.7-0.9c0.4,0.2,0.9,0.2,1.5,0C17.6,16.8,18.1,16.2,18.4,15.7 M37,5.8c0.6-0.1,1.1,0.2,1.8,0.1
		c0.8-0.1,1.6-0.9,1.7-1.5c0,0,0,0-0.1,0c-0.1,0.2-0.4,0.3-0.7,0.4c-0.6,0.1-1-0.2-1.8-0.1c-0.8,0.2-1.4,0.7-1.7,1.5c0,0,0,0,0.1,0
		C36.5,6,36.7,5.9,37,5.8 M43.2,11.2c-0.4,0.1-0.5-0.1-0.6-0.9c-0.1-1.2,0.3-3.6,1-3.8c0.3-0.1,0.4,0.1,0.5,0.6
		c-0.2,0.1-0.3,0.4-0.2,0.7c0,0.3,0.1,0.5,0.3,0.5C44.1,9.9,43.7,11.1,43.2,11.2 M38.3,10.6c-0.1,0.7-0.5,1.1-0.8,1.1
		c-0.2,0-0.5,0-0.6-0.8c-0.1-1.1,0.3-3.2,1.2-3.3c0.3-0.1,0.4,0.2,0.5,0.4C38.5,8.8,38.4,9.7,38.3,10.6 M32.3,12.2
		c-0.2,0-0.5,0.1-0.6-0.7c-0.1-1,0.2-2.9,1.1-3.1c0.3-0.1,0.4,0.2,0.5,0.3c-0.1,0.8-0.2,1.7-0.2,2.5l0,0.1
		C32.9,11.8,32.6,12.2,32.3,12.2 M27.3,13.2c-0.2,0-0.5,0.1-0.6-0.6c-0.2-0.8,0-2.6,0.8-2.9c0.3-0.1,0.5,0.1,0.5,0.2
		c0,0.7,0,1.5,0,2.2C27.9,12.7,27.6,13.1,27.3,13.2 M45.1,8c0.5-0.5,0.8-1.3,1-1.9c-0.1,0-0.2,0-0.3,0.1c-0.1,0.3-0.3,0.9-0.7,1
		c-0.1-1.1-0.6-1.6-1.5-1.4c-2,0.5-2.5,3.1-2.4,4.6c-0.1,0-0.2,0-0.3,0c-0.1,0.6-0.4,1.2-0.8,1.2c-0.3,0-0.4-0.2-0.4-0.5
		c0-0.1,0-0.2,0-0.4c0.2-1.4,0.4-2.8,0.6-4.2c-0.5,0.1-1,0.1-1.5,0.2c0,0.2-0.1,0.4-0.1,0.6c0,0,0-0.1,0-0.1c0-0.3-0.3-0.6-0.9-0.5
		c-1.8,0.3-2.4,2.8-2.3,4.3c-0.1,0.4-0.3,0.7-0.7,0.8c-0.3,0-0.4-0.1-0.4-0.4c0-0.1,0-0.2,0-0.3c0.2-2,0.5-4,0.7-6.1
		c-0.5,0.2-1,0.4-1.6,0.5c-0.1,0.9-0.2,1.7-0.3,2.6l0,0c0-0.3-0.3-0.5-0.9-0.4c-1.8,0.4-2.3,2.7-2.1,4.1c0,0.1,0,0.2,0,0.2
		c-0.1,0.3-0.3,0.5-0.5,0.6c-0.3,0.1-0.4-0.1-0.5-0.3c0-0.1,0-0.2,0-0.3c0-1.1,0.1-2.3,0.1-3.5c-0.5,0.1-1,0.3-1.5,0.4
		c0,0.2,0,0.4,0,0.5c0,0,0,0,0-0.1C27.9,9.2,27.6,9,27,9.2c-1.7,0.6-2.1,2.7-1.8,3.8c-0.3,0.5-0.7,0.9-1.3,1
		c-0.5,0.1-0.7,0.1-0.9-0.5c-0.3-0.9,0-2.6,0.6-2.8c0.2-0.1,0.3,0,0.4,0.3c0,0.1,0,0.3,0,0.5c0.1,0,0.3,0,0.4,0
		c0.3-0.1,0.5-0.4,0.4-0.8c-0.1-0.4-0.4-0.7-1.3-0.4c-2,0.7-2,2.9-1.8,3.8c0.3,0.9,1,1.1,1.8,0.9c0.9-0.2,1.5-0.8,1.9-1.5
		c0.3,0.7,0.9,0.9,1.5,0.7c0.7-0.1,1-0.7,1.2-1.2c0.2,0.5,0.6,0.8,1.1,0.7c0.4-0.1,0.9-0.3,1.3-1.1c0.3,0.6,0.8,0.7,1.3,0.7
		c0.7-0.1,1.1-0.6,1.3-1.1c0.1,0.6,0.5,0.9,1,0.8c0.4,0,1-0.2,1.5-1.1c0.3,0.8,0.8,1,1.3,1c0.7-0.1,1.1-0.6,1.4-1.2
		c0.1,0.7,0.5,1,1,1c0.5,0,1.3-0.3,1.8-1.9c0.2,1.3,0.9,1.8,1.8,1.6C44.1,12.2,45.1,10.5,45.1,8"/>
	<g>
		<defs>
			<rect id="SVGID_3_" x="2.3" y="1.7" width="52.9" height="28.7"/>
		</defs>
		<clipPath id="SVGID_4_">
			<use xlink:href="#SVGID_3_"  style="overflow:visible;"/>
		</clipPath>
		<path class="st4" d="M17.7,20.9c0.1-0.6,0.2-1.3,0.4-2c0.5-0.3,1-0.7,1.5-1c-0.3,0.8-0.6,1.6-0.8,2.3C18.4,20.5,18,20.7,17.7,20.9
			 M35.2,22.6c0.5,0.1,1-0.9,1.3-2.3c-0.2-0.1-0.2-0.3-0.2-0.6c0-0.3,0.2-0.5,0.3-0.6c0-0.5-0.1-0.7-0.4-0.7c-0.8,0-1.5,2.1-1.6,3.3
			C34.7,22.4,34.8,22.6,35.2,22.6 M21.6,21.2c-0.1,0.1-0.2,0.1-0.3,0.2c0.1,0.1,0.1,0.2,0.1,0.4C21.4,21.6,21.5,21.4,21.6,21.2
			 M19.5,24c0.7-0.3,1-1.2,0.6-2.1c-0.3,0.1-0.5,0-0.6-0.1c-0.1-0.2,0-0.4,0.2-0.6c-0.2-0.3-0.5-0.3-0.8-0.1c-1,0.6-1,2.1-0.5,2.6
			C18.7,24.3,19,24.3,19.5,24 M41.2,17.8c-0.4,3.6-0.4,4.1-0.6,5c-0.3,1.8-1.2,2-2,1.8c-1.1-0.4-1.3-1.3-1.2-2.1
			c0.1-0.7,0.5-1.1,0.8-1.1c0.3,0.1,0.5,0.3,0.5,0.7c0,0.3-0.3,0.5-0.5,0.5c-0.1,0-0.2-0.1-0.3-0.2c-0.1,0.6,0.1,1,0.5,1.1
			c0.4,0.1,0.6-0.1,0.8-1c0.1-0.7,0-1.2,0.2-3.6c-0.7,0.9-1.3,1.4-2,1.5c-0.4,2.4-1.4,3.5-2.6,3.3c-0.7-0.1-1.3-0.5-1.5-1.3
			c-0.6,0.8-1.2,0.8-1.6,0.8c-0.5,0-0.9-0.3-1.1-0.9c-0.5,0.7-1.1,0.8-1.5,0.8c-0.6,0-1-0.3-1.1-0.9c-0.4,0.8-1,0.9-1.4,1
			c-0.6,0-1.1-0.2-1.2-0.8c-0.4,0.6-1.1,1.2-2,1.4c-0.9,0.2-1.6,0.1-1.9-0.6c0,0,0,0,0-0.1c-0.2,0.8-1,1.5-2,1.9
			c-1.3,0.5-2.4,0.7-3,0.1c-0.6-0.5-0.9-2.2,2-4c1.2-0.7,2.1-0.7,2.6,0.1c0.1,0,0.1,0,0.2-0.1c0.3-0.1,0.5-0.2,0.7-0.4
			c0.3-0.4,0.8-0.9,1.5-1.2c1-0.4,1.3-0.1,1.3,0.3c0.1,0.4-0.1,0.7-0.4,0.8c-0.1,0-0.2,0-0.4,0c0-0.2,0-0.4,0-0.5
			c0-0.2-0.2-0.3-0.4-0.2c-0.7,0.3-1,1.9-0.7,2.7c0.1,0.5,0.4,0.5,0.9,0.4c0.8-0.2,1.2-0.6,1.6-1.2c0,0,0,0,0,0
			c0.1-0.9,0.2-1.9,0.4-2.9c0.5-0.1,1-0.3,1.6-0.4c-0.2,1.1-0.3,2.2-0.5,3.2c0,0.1,0,0.2,0,0.3c0,0.2,0.1,0.3,0.3,0.3
			c0.4,0,0.6-0.4,0.8-0.9c0.2-1,0.3-2.1,0.5-3.2C29,18,29.5,18,30,17.9c-0.2,1.2-0.4,2.4-0.6,3.5c0,0.1,0,0.2,0,0.3
			c0,0.3,0.2,0.4,0.4,0.4c0.3,0,0.5-0.2,0.7-0.6c0-0.1,0-0.2,0-0.3c0.3-1.7,0.7-3.5,1.1-5.4c0.6-0.1,1.1-0.3,1.7-0.4
			c-0.5,2.1-1,4.1-1.4,6c0,0.1,0,0.2,0,0.3c0,0.3,0.1,0.4,0.4,0.4c0.3,0,0.6-0.2,0.8-0.5c0-1.2,0.7-4,3.1-4c1,0,1.4,0.8,1.2,2.1
			c0.5,0,1.2-0.6,2-1.8C40,17.8,40.6,17.8,41.2,17.8"/>
	</g>
	<g>
		<path class="st1" d="M44.5,20.7c1.3,0.1,2.2,1.3,2.1,2.8c-0.1,1.4-1.2,2.5-2.5,2.4c-1.3-0.1-2.2-1.4-2.1-2.8
			C42.1,21.7,43.3,20.6,44.5,20.7 M46.9,18.5l5-15l-4.2-0.3l-3.3,15.1L46.9,18.5z"/>
	</g>
</g>
</svg>
