<?xml version="1.0" encoding="utf-8"?>
<!-- Generator: Adobe Illustrator 28.3.0, SVG Export Plug-In . SVG Version: 6.00 Build 0)  -->
<svg version="1.1" id="Layer_1" xmlns="http://www.w3.org/2000/svg" xmlns:xlink="http://www.w3.org/1999/xlink" x="0px" y="0px"
	 viewBox="0 0 57.5 32" style="enable-background:new 0 0 57.5 32;" xml:space="preserve">
<style type="text/css">
	.st0{fill:#359479;}
	.st1{opacity:0.5;enable-background:new    ;}
	.st2{fill:#FFFFFF;}
</style>
<g>
	<g>
		<path class="st0" d="M36.2,11.2c-3.2,2-6.7,1.8-7.8-0.5c-0.1-0.2-0.1-0.3-0.2-0.5c0,0.5,0.1,1.1,0.3,1.5c1.1,2.2,4.6,2.4,7.8,0.5
			c3-1.8,4.7-4.9,4-7.1C40.3,7.2,38.7,9.6,36.2,11.2z"/>
	</g>
	<g>
		<path class="st0" d="M24.8,10.4c3-8.4,12.6-0.9,17.2-5C38.6,10.6,28.7,4.8,24.8,10.4z"/>
	</g>
	<g>
		<path class="st0" d="M28.7,7.5c0.2,2.1,1.8,3.7,3.7,3.7c1.9,0,3.5-1.7,3.7-3.9C33.6,7.3,31,7.1,28.7,7.5z"/>
	</g>
	<g class="st1">
		<circle class="st2" cx="28.3" cy="9.9" r="5.8"/>
	</g>
	<g>
		<path class="st0" d="M28.3,16.3c-3.5,0-6.4-2.9-6.4-6.4s2.9-6.4,6.4-6.4s6.4,2.9,6.4,6.4S31.8,16.3,28.3,16.3z M28.3,4.8
			c-2.8,0-5.1,2.3-5.1,5.1c0,2.8,2.3,5.1,5.1,5.1c2.8,0,5.1-2.3,5.1-5.1C33.4,7.1,31.1,4.8,28.3,4.8z"/>
	</g>
</g>
<g>
	<g>
		<path class="st0" d="M9.7,23c0,1.4-1,2.4-3,2.4s-3-0.9-3-2.4c0-1.4,1-2.4,3-2.4S9.7,21.6,9.7,23z M8.4,23c0-1-0.6-1.5-1.7-1.5
			c-1,0-1.7,0.5-1.7,1.5c0,1,0.6,1.5,1.7,1.5C7.8,24.5,8.4,24,8.4,23z"/>
		<path class="st0" d="M11.9,24.8L11.9,24.8l0,1.8h-1.3v-4.8h1.2l0.1,0.6h0c0.4-0.4,0.9-0.6,1.7-0.6c1.4,0,2.1,0.7,2.1,1.8
			c0,1.1-0.8,1.8-2.1,1.8C12.8,25.4,12.3,25.2,11.9,24.8z M11.9,23.6c0,0.6,0.5,1,1.2,1c0.7,0,1.2-0.4,1.2-1c0-0.6-0.5-1-1.2-1
			C12.4,22.6,11.9,22.9,11.9,23.6z"/>
		<path class="st0" d="M20.2,24.5v0.9c0,0-0.4,0.1-0.8,0.1c-1.5,0-2.3-0.3-2.3-1.7v-1.1H16v-0.8h1.1v-1.1h1.3v1.1h1.7v0.8h-1.7v1
			c0,0.6,0.3,0.9,1.1,0.9C19.8,24.5,20.2,24.5,20.2,24.5z"/>
		<path class="st0" d="M22.1,20.7c0,0.4-0.3,0.6-0.7,0.6c-0.4,0-0.7-0.2-0.7-0.6c0-0.4,0.3-0.6,0.7-0.6C21.8,20,22.1,20.3,22.1,20.7
			z M22,21.8v3.5h-1.3v-3.5H22z"/>
		<path class="st0" d="M28.7,25.4c-2.3,0-3.4-0.9-3.4-2.4c0-1.4,1.1-2.4,3.4-2.4c0.8,0,1.6,0.1,2.1,0.4v1.1c-0.3-0.3-1.2-0.6-2-0.6
			c-1.3,0-2.2,0.5-2.2,1.5c0,1,0.9,1.5,2.2,1.5c0.8,0,1.7-0.2,2.1-0.6l0,1.1C30.4,25.2,29.5,25.4,28.7,25.4z"/>
		<path class="st0" d="M33,20.5v4.8h-1.3v-4.8H33z"/>
		<path class="st0" d="M41.5,23.5v1.8h-1.3v-1.8c0-0.6-0.5-1-1.2-1c-0.7,0-1.2,0.3-1.2,1v1.8h-1.3v-3.5h1.2l0.1,0.5h0
			c0.4-0.4,1-0.6,1.7-0.6C40.8,21.7,41.5,22.4,41.5,23.5z"/>
		<path class="st0" d="M43.9,20.7c0,0.4-0.3,0.6-0.7,0.6c-0.4,0-0.7-0.2-0.7-0.6c0-0.4,0.3-0.6,0.7-0.6C43.6,20,43.9,20.3,43.9,20.7
			z M43.8,21.8v3.5h-1.3v-3.5H43.8z"/>
		<path class="st0" d="M49.3,25.2c-0.4,0.1-1.2,0.2-1.8,0.2c-1.8,0-2.7-0.7-2.7-1.8c0-1.1,0.9-1.8,2.7-1.8c0.5,0,1.3,0.1,1.7,0.2v1
			c-0.3-0.2-1-0.3-1.5-0.3c-1,0-1.5,0.3-1.5,1c0,0.6,0.6,1,1.5,1c0.7,0,1.4-0.2,1.7-0.4V25.2z"/>
		<path class="st0" d="M54.4,23.2v2.2h-1.1l-0.1-0.5h0c-0.3,0.3-0.8,0.5-1.7,0.5c-1.1,0-1.8-0.4-1.8-1.2c0-0.8,0.8-1.1,2-1.1
			c0.6,0,1,0.1,1.4,0.2v-0.1c0-0.4-0.4-0.6-1.3-0.6c-0.7,0-1.5,0.2-1.8,0.3V22c0.3-0.1,1.3-0.3,1.9-0.3
			C53.5,21.7,54.4,22.2,54.4,23.2z M53,23.8c-0.2-0.1-0.6-0.2-1-0.2c-0.6,0-1.1,0.1-1.1,0.5c0,0.4,0.4,0.5,0.9,0.5
			C52.7,24.6,53,24.3,53,23.8L53,23.8z"/>
	</g>
	<g>
		<g>
			<path class="st0" d="M36.1,20.1l-0.7,1.1H34l0.4-1.1H36.1z"/>
		</g>
	</g>
	<g>
		<rect x="34" y="21.8" class="st0" width="1.3" height="3.5"/>
	</g>
</g>
</svg>
